<svg xmlns="http://www.w3.org/2000/svg" viewBox="0 0 16 16" width="16px" height="16px">
 <path d=" M 3.468 1.904 C 5.303 3.282 7.276 6.074 8 7.572 C 8.725 6.074 10.697 3.282 12.532 1.904 C 13.855 0.911 16 0.142 16 2.588 C 16 3.077 15.72 6.693 15.556 7.28 C 14.984 9.321 12.903 9.841 11.052 9.526 C 14.288 10.077 15.111 11.901 13.333 13.726 C 9.957 17.19 8.481 12.856 8.102 11.746 C 8.033 11.542 8 11.447 8 11.528 C 8 11.447 7.967 11.542 7.898 11.746 C 7.519 12.856 6.043 17.19 2.667 13.726 C 0.889 11.901 1.712 10.077 4.948 9.526 C 3.097 9.841 1.015 9.321 0.444 7.28 C 0.28 6.693 0 3.077 0 2.588 C 0 0.142 2.145 0.911 3.468 1.904 L 3.468 1.904 Z "
       fill="currentColor"/>
</svg>