<?xml version="1.0" encoding="UTF-8"?>
<svg width="84.513mm" height="77.311mm" version="1.1" viewBox="0 0 84.513 77.311" xmlns="http://www.w3.org/2000/svg">
 <g transform="translate(-53.995 -39.399)">
  <g transform="matrix(4.6799 0 0 4.6799 57.859 41.017)" fill="currentColor">
   <path d="m13.52 4.6359c0 2-3 2-3 0s3-2 3 0z"/>
   <path transform="matrix(.056536 0 0 .056536 -12.363 -8.7646)" d="m254.09 172.71a35.375 35.375 0 0 0-25.926 11.428l13.102 11.914a17.688 17.688 0 0 1 12.824-5.6524h212.25a17.688 17.688 0 0 1 17.688 17.688v114.97l-66.807-34.438a8.8439 8.8439 0 0 0-10.205 1.6445l-29.594 29.594 105.75 96.154a35.375 35.375 0 0 0 18.545-31.047v-176.88a35.375 35.375 0 0 0-35.375-35.377zm-34.73 28.963a35.375 35.375 0 0 0-0.64649 6.4141v176.88a35.375 35.375 0 0 0 35.377 35.375h205.75l-95.797-87.105-22.65 22.65-47.051-31.342a8.8439 8.8439 0 0 0-11.143 1.0977l-46.801 41.637v-150.11z" stroke-width="17.688"/>
  </g>
  <path d="m56.562 41.966 79.38 72.178" fill="none" stroke="#000" stroke-linecap="round" stroke-width="5.133"/>
 </g>
</svg>
