<svg xmlns="http://www.w3.org/2000/svg" style="isolation:isolate"
     viewBox="0 0 116.5 75.8" width="116.5px" height="75.8px">
    <g>
        <path d=" M 78.243 46.337 Q 77.049 46.757 74.911 41.643 Q 74.049 40.012 73.377 38.719 Q 72.705 37.426 72.155 36.394 Q 71.604 35.363 71.197 34.501 Q 70.789 33.639 70.406 32.824 Q 70.022 34.741 69.495 36.826 Q 68.968 38.911 68.249 41.642 L 65.229 52.81 L 55.5 52.81 L 63.791 24.628 Q 64.462 22.375 65.996 21.297 C 66.988 20.588 68.18 20.21 69.399 20.219 Q 70.925 20.216 72.5 20.96 C 73.488 21.341 74.818 22.657 75.5 23.622 C 76.55 25.4 77.18 26.565 77.818 28.148 C 78.498 29.993 79.243 32.398 79.781 36.602 C 80.087 40.589 79.229 45.966 78.243 46.337 L 78.243 46.337 L 78.243 46.337 Z  M 93.757 46.337 Q 94.951 46.757 97.089 41.643 Q 97.951 40.012 98.623 38.719 Q 99.295 37.426 99.845 36.394 Q 100.396 35.363 100.803 34.501 Q 101.211 33.639 101.594 32.824 Q 101.978 34.741 102.505 36.826 Q 103.032 38.911 103.751 41.642 L 106.771 52.81 L 116.5 52.81 L 108.209 24.628 Q 107.538 22.375 106.004 21.297 C 105.012 20.588 103.82 20.21 102.601 20.219 Q 101.075 20.216 99.5 20.96 C 98.513 21.341 97.182 22.657 96.5 23.622 C 95.45 25.4 94.82 26.565 94.182 28.148 C 93.502 29.993 92.757 32.398 92.219 36.602 C 91.913 40.589 92.771 45.966 93.757 46.337 L 93.757 46.337 L 93.757 46.337 Z  M 22.743 28.077 Q 21.549 27.657 19.411 32.771 Q 18.549 34.402 17.877 35.695 Q 17.205 36.988 16.655 38.02 Q 16.104 39.051 15.697 39.913 Q 15.289 40.775 14.906 41.59 Q 14.522 39.673 13.995 37.588 Q 13.468 35.503 12.749 32.772 L 9.729 21.604 L 0 21.604 L 8.291 49.786 Q 8.962 52.039 10.496 53.117 C 11.488 53.826 12.68 54.204 13.899 54.195 Q 15.425 54.198 17 53.454 C 17.987 53.073 19.318 51.757 20 50.792 C 21.05 49.014 21.68 47.849 22.318 46.267 C 22.998 44.421 23.743 42.017 24.281 37.812 C 24.587 33.825 23.729 28.448 22.743 28.077 L 22.743 28.077 Z  M 38.257 28.077 Q 39.451 27.657 41.589 32.771 Q 42.451 34.402 43.123 35.695 Q 43.795 36.988 44.345 38.02 Q 44.896 39.051 45.303 39.913 Q 45.711 40.775 46.094 41.59 Q 46.478 39.673 47.005 37.588 Q 47.532 35.503 48.251 32.772 L 51.271 21.604 L 61 21.604 L 52.709 49.786 Q 52.038 52.039 50.504 53.117 C 49.512 53.826 48.32 54.204 47.101 54.195 Q 45.575 54.198 44 53.454 C 43.013 53.073 41.682 51.757 41 50.792 C 39.95 49.014 39.32 47.849 38.682 46.267 C 38.002 44.421 37.257 42.017 36.719 37.812 C 36.413 33.825 37.271 28.448 38.257 28.077 Z "
              fill="rgb(0,0,0)"/>
        <mask id="_mask_IMJFEswlQ12N0qKHm1NPkzCRjlkI69xz" x="-200%" y="-200%" width="400%" height="400%">
            <rect x="-200%" y="-200%" width="400%" height="400%" style="fill:white;"/>
            <path d=" M 33.41 37.9 C 33.41 24.102 44.612 12.9 58.41 12.9 C 72.208 12.9 83.41 24.102 83.41 37.9 C 83.41 51.698 72.208 62.9 58.41 62.9 C 44.612 62.9 33.41 51.698 33.41 37.9 Z "
                  fill="black" stroke="none"/>
        </mask>
        <path d=" M 33.41 37.9 C 33.41 24.102 44.612 12.9 58.41 12.9 C 72.208 12.9 83.41 24.102 83.41 37.9 C 83.41 51.698 72.208 62.9 58.41 62.9 C 44.612 62.9 33.41 51.698 33.41 37.9 Z "
              fill="none"/>
        <path d=" M 33.41 37.9 C 33.41 24.102 44.612 12.9 58.41 12.9 C 72.208 12.9 83.41 24.102 83.41 37.9 C 83.41 51.698 72.208 62.9 58.41 62.9 C 44.612 62.9 33.41 51.698 33.41 37.9 Z "
              fill="none" mask="url(#_mask_IMJFEswlQ12N0qKHm1NPkzCRjlkI69xz)" stroke-width="14" stroke="rgb(0,0,0)"
              stroke-opacity="100"/>
    </g>
</svg>
