<svg xmlns="http://www.w3.org/2000/svg" viewBox="0 0 128 128" width="128px" height="128px">
    <rect x="0" y="0" width="128" height="128" fill="#55d1ff"/>
    <g>
        <path d=" M 15.976 0 L 8.004 4.002 L 0 8.004 L 0 0 L 15.976 0 Z " fill="rgb(13,186,255)"/>
        <path d=" M 8.004 12.006 L 15.976 8.004 L 15.976 16.008 L 8.004 20.01 L 0 24.012 L 0 16.008 L 8.004 12.006 Z "
              fill="rgb(13,186,255)"/>
        <path d=" M 8.004 28.014 L 15.976 24.012 L 15.976 32.016 L 8.004 36.018 L 0 39.988 L 0 32.016 L 8.004 28.014 Z "
              fill="rgb(13,186,255)"/>
        <path d=" M 8.004 43.99 L 15.976 39.988 L 15.976 47.992 L 8.004 51.994 L 0 55.996 L 0 47.992 L 8.004 43.99 Z "
              fill="rgb(13,186,255)"/>
        <path d=" M 8.004 59.998 L 15.976 55.996 L 15.976 64 L 8.004 68.002 L 0 72.004 L 0 64 L 8.004 59.998 Z "
              fill="rgb(13,186,255)"/>
        <path d=" M 8.004 76.006 L 15.976 72.004 L 15.976 80.008 L 8.004 84.01 L 0 88.012 L 0 80.008 L 8.004 76.006 Z "
              fill="rgb(13,186,255)"/>
        <path d=" M 8.004 92.014 L 15.976 88.012 L 15.976 95.984 L 8.004 99.986 L 0 103.988 L 0 95.984 L 8.004 92.014 Z "
              fill="rgb(13,186,255)"/>
        <path d=" M 8.004 107.99 L 15.976 103.988 L 15.976 111.992 L 8.004 115.994 L 0 119.996 L 0 111.992 L 8.004 107.99 Z "
              fill="rgb(13,186,255)"/>
        <path d=" M 8.004 123.998 L 15.976 119.996 L 15.976 128 L 0 128 L 8.004 123.998 Z " fill="rgb(13,186,255)"/>
        <path d=" M 47.992 0 L 39.988 4.002 L 31.984 8.004 L 31.984 0 L 47.992 0 Z " fill="rgb(13,186,255)"/>
        <path d=" M 23.98 4.002 L 15.976 0 L 15.976 8.004 L 23.98 12.006 L 31.984 16.008 L 31.984 8.004 L 23.98 4.002 Z "
              fill="rgb(13,186,255)"/>
        <path d=" M 39.988 12.006 L 47.992 8.004 L 47.992 16.008 L 39.988 20.01 L 31.984 24.012 L 31.984 16.008 L 39.988 12.006 Z "
              fill="rgb(13,186,255)"/>
        <path d=" M 23.98 20.01 L 15.976 16.008 L 15.976 24.012 L 23.98 28.014 L 31.984 32.016 L 31.984 24.012 L 23.98 20.01 Z "
              fill="rgb(13,186,255)"/>
        <path d=" M 39.988 28.014 L 47.992 24.012 L 47.992 32.016 L 39.988 36.018 L 31.984 39.988 L 31.984 32.016 L 39.988 28.014 Z "
              fill="rgb(13,186,255)"/>
        <path d=" M 23.98 36.018 L 15.976 32.016 L 15.976 39.988 L 23.98 43.99 L 31.984 47.992 L 31.984 39.988 L 23.98 36.018 Z "
              fill="rgb(13,186,255)"/>
        <path d=" M 39.988 43.99 L 47.992 39.988 L 47.992 47.992 L 39.988 51.994 L 31.984 55.996 L 31.984 47.992 L 39.988 43.99 Z "
              fill="rgb(13,186,255)"/>
        <path d=" M 23.98 51.994 L 15.976 47.992 L 15.976 55.996 L 23.98 59.998 L 31.984 64 L 31.984 55.996 L 23.98 51.994 Z "
              fill="rgb(13,186,255)"/>
        <path d=" M 39.988 59.998 L 47.992 55.996 L 47.992 64 L 39.988 68.002 L 31.984 72.004 L 31.984 64 L 39.988 59.998 Z "
              fill="rgb(13,186,255)"/>
        <path d=" M 23.98 68.002 L 15.976 64 L 15.976 72.004 L 23.98 76.006 L 31.984 80.008 L 31.984 72.004 L 23.98 68.002 Z "
              fill="rgb(13,186,255)"/>
        <path d=" M 39.988 76.006 L 47.992 72.004 L 47.992 80.008 L 39.988 84.01 L 31.984 88.012 L 31.984 80.008 L 39.988 76.006 Z "
              fill="rgb(13,186,255)"/>
        <path d=" M 23.98 84.01 L 15.976 80.008 L 15.976 88.012 L 23.98 92.014 L 31.984 95.984 L 31.984 88.012 L 23.98 84.01 Z "
              fill="rgb(13,186,255)"/>
        <path d=" M 39.988 92.014 L 47.992 88.012 L 47.992 95.984 L 39.988 99.986 L 31.984 103.988 L 31.984 95.984 L 39.988 92.014 Z "
              fill="rgb(13,186,255)"/>
        <path d=" M 23.98 99.986 L 15.976 95.984 L 15.976 103.988 L 23.98 107.99 L 31.984 111.992 L 31.984 103.988 L 23.98 99.986 Z "
              fill="rgb(13,186,255)"/>
        <path d=" M 39.988 107.99 L 47.992 103.988 L 47.992 111.992 L 39.988 115.994 L 31.984 119.996 L 31.984 111.992 L 39.988 107.99 Z "
              fill="rgb(13,186,255)"/>
        <path d=" M 23.98 115.994 L 15.976 111.992 L 15.976 119.996 L 23.98 123.998 L 31.984 128 L 31.984 119.996 L 23.98 115.994 Z "
              fill="rgb(13,186,255)"/>
        <path d=" M 39.988 123.998 L 47.992 119.996 L 47.992 128 L 31.984 128 L 39.988 123.998 Z "
              fill="rgb(13,186,255)"/>
        <path d=" M 79.976 0 L 72.004 4.002 L 64 8.004 L 64 0 L 79.976 0 Z " fill="rgb(13,186,255)"/>
        <path d=" M 55.996 4.002 L 47.992 0 L 47.992 8.004 L 55.996 12.006 L 64 16.008 L 64 8.004 L 55.996 4.002 Z "
              fill="rgb(13,186,255)"/>
        <path d=" M 72.004 12.006 L 79.976 8.004 L 79.976 16.008 L 72.004 20.01 L 64 24.012 L 64 16.008 L 72.004 12.006 Z "
              fill="rgb(13,186,255)"/>
        <path d=" M 55.996 20.01 L 47.992 16.008 L 47.992 24.012 L 55.996 28.014 L 64 32.016 L 64 24.012 L 55.996 20.01 Z "
              fill="rgb(13,186,255)"/>
        <path d=" M 72.004 28.014 L 79.976 24.012 L 79.976 32.016 L 72.004 36.018 L 64 39.988 L 64 32.016 L 72.004 28.014 Z "
              fill="rgb(13,186,255)"/>
        <path d=" M 55.996 36.018 L 47.992 32.016 L 47.992 39.988 L 55.996 43.99 L 64 47.992 L 64 39.988 L 55.996 36.018 Z "
              fill="rgb(13,186,255)"/>
        <path d=" M 72.004 43.99 L 79.976 39.988 L 79.976 47.992 L 72.004 51.994 L 64 55.996 L 64 47.992 L 72.004 43.99 Z "
              fill="rgb(13,186,255)"/>
        <path d=" M 55.996 51.994 L 47.992 47.992 L 47.992 55.996 L 55.996 59.998 L 64 64 L 64 55.996 L 55.996 51.994 Z "
              fill="rgb(13,186,255)"/>
        <path d=" M 72.004 59.998 L 79.976 55.996 L 79.976 64 L 72.004 68.002 L 64 72.004 L 64 64 L 72.004 59.998 Z "
              fill="rgb(13,186,255)"/>
        <path d=" M 55.996 68.002 L 47.992 64 L 47.992 72.004 L 55.996 76.006 L 64 80.008 L 64 72.004 L 55.996 68.002 Z "
              fill="rgb(13,186,255)"/>
        <path d=" M 72.004 76.006 L 79.976 72.004 L 79.976 80.008 L 72.004 84.01 L 64 88.012 L 64 80.008 L 72.004 76.006 Z "
              fill="rgb(13,186,255)"/>
        <path d=" M 55.996 84.01 L 47.992 80.008 L 47.992 88.012 L 55.996 92.014 L 64 95.984 L 64 88.012 L 55.996 84.01 Z "
              fill="rgb(13,186,255)"/>
        <path d=" M 72.004 92.014 L 79.976 88.012 L 79.976 95.984 L 72.004 99.986 L 64 103.988 L 64 95.984 L 72.004 92.014 Z "
              fill="rgb(13,186,255)"/>
        <path d=" M 55.996 99.986 L 47.992 95.984 L 47.992 103.988 L 55.996 107.99 L 64 111.992 L 64 103.988 L 55.996 99.986 Z "
              fill="rgb(13,186,255)"/>
        <path d=" M 72.004 107.99 L 79.976 103.988 L 79.976 111.992 L 72.004 115.994 L 64 119.996 L 64 111.992 L 72.004 107.99 Z "
              fill="rgb(13,186,255)"/>
        <path d=" M 55.996 115.994 L 47.992 111.992 L 47.992 119.996 L 55.996 123.998 L 64 128 L 64 119.996 L 55.996 115.994 Z "
              fill="rgb(13,186,255)"/>
        <path d=" M 72.004 123.998 L 79.976 119.996 L 79.976 128 L 64 128 L 72.004 123.998 Z "
              fill="rgb(13,186,255)"/>
        <path d=" M 111.992 0 L 103.988 4.002 L 95.984 8.004 L 95.984 0 L 111.992 0 Z " fill="rgb(13,186,255)"/>
        <path d=" M 87.98 4.002 L 79.976 0 L 79.976 8.004 L 87.98 12.006 L 95.984 16.008 L 95.984 8.004 L 87.98 4.002 Z "
              fill="rgb(13,186,255)"/>
        <path d=" M 103.988 12.006 L 111.992 8.004 L 111.992 16.008 L 103.988 20.01 L 95.984 24.012 L 95.984 16.008 L 103.988 12.006 Z "
              fill="rgb(13,186,255)"/>
        <path d=" M 87.98 20.01 L 79.976 16.008 L 79.976 24.012 L 87.98 28.014 L 95.984 32.016 L 95.984 24.012 L 87.98 20.01 Z "
              fill="rgb(13,186,255)"/>
        <path d=" M 103.988 28.014 L 111.992 24.012 L 111.992 32.016 L 103.988 36.018 L 95.984 39.988 L 95.984 32.016 L 103.988 28.014 Z "
              fill="rgb(13,186,255)"/>
        <path d=" M 87.98 36.018 L 79.976 32.016 L 79.976 39.988 L 87.98 43.99 L 95.984 47.992 L 95.984 39.988 L 87.98 36.018 Z "
              fill="rgb(13,186,255)"/>
        <path d=" M 103.988 43.99 L 111.992 39.988 L 111.992 47.992 L 103.988 51.994 L 95.984 55.996 L 95.984 47.992 L 103.988 43.99 Z "
              fill="rgb(13,186,255)"/>
        <path d=" M 87.98 51.994 L 79.976 47.992 L 79.976 55.996 L 87.98 59.998 L 95.984 64 L 95.984 55.996 L 87.98 51.994 Z "
              fill="rgb(13,186,255)"/>
        <path d=" M 103.988 59.998 L 111.992 55.996 L 111.992 64 L 103.988 68.002 L 95.984 72.004 L 95.984 64 L 103.988 59.998 Z "
              fill="rgb(13,186,255)"/>
        <path d=" M 87.98 68.002 L 79.976 64 L 79.976 72.004 L 87.98 76.006 L 95.984 80.008 L 95.984 72.004 L 87.98 68.002 Z "
              fill="rgb(13,186,255)"/>
        <path d=" M 103.988 76.006 L 111.992 72.004 L 111.992 80.008 L 103.988 84.01 L 95.984 88.012 L 95.984 80.008 L 103.988 76.006 Z "
              fill="rgb(13,186,255)"/>
        <path d=" M 87.98 84.01 L 79.976 80.008 L 79.976 88.012 L 87.98 92.014 L 95.984 95.984 L 95.984 88.012 L 87.98 84.01 Z "
              fill="rgb(13,186,255)"/>
        <path d=" M 103.988 92.014 L 111.992 88.012 L 111.992 95.984 L 103.988 99.986 L 95.984 103.988 L 95.984 95.984 L 103.988 92.014 Z "
              fill="rgb(13,186,255)"/>
        <path d=" M 87.98 99.986 L 79.976 95.984 L 79.976 103.988 L 87.98 107.99 L 95.984 111.992 L 95.984 103.988 L 87.98 99.986 Z "
              fill="rgb(13,186,255)"/>
        <path d=" M 103.988 107.99 L 111.992 103.988 L 111.992 111.992 L 103.988 115.994 L 95.984 119.996 L 95.984 111.992 L 103.988 107.99 Z "
              fill="rgb(13,186,255)"/>
        <path d=" M 87.98 115.994 L 79.976 111.992 L 79.976 119.996 L 87.98 123.998 L 95.984 128 L 95.984 119.996 L 87.98 115.994 Z "
              fill="rgb(13,186,255)"/>
        <path d=" M 103.988 123.998 L 111.992 119.996 L 111.992 128 L 95.984 128 L 103.988 123.998 Z "
              fill="rgb(13,186,255)"/>
        <path d=" M 119.996 4.002 L 111.992 0 L 111.992 8.004 L 119.996 12.006 L 128 16.008 L 128 8.004 L 119.996 4.002 Z "
              fill="rgb(13,186,255)"/>
        <path d=" M 119.996 20.01 L 111.992 16.008 L 111.992 24.012 L 119.996 28.014 L 128 32.016 L 128 24.012 L 119.996 20.01 Z "
              fill="rgb(13,186,255)"/>
        <path d=" M 119.996 36.018 L 111.992 32.016 L 111.992 39.988 L 119.996 43.99 L 128 47.992 L 128 39.988 L 119.996 36.018 Z "
              fill="rgb(13,186,255)"/>
        <path d=" M 119.996 51.994 L 111.992 47.992 L 111.992 55.996 L 119.996 59.998 L 128 64 L 128 55.996 L 119.996 51.994 Z "
              fill="rgb(13,186,255)"/>
        <path d=" M 119.996 68.002 L 111.992 64 L 111.992 72.004 L 119.996 76.006 L 128 80.008 L 128 72.004 L 119.996 68.002 Z "
              fill="rgb(13,186,255)"/>
        <path d=" M 119.996 84.01 L 111.992 80.008 L 111.992 88.012 L 119.996 92.014 L 128 95.984 L 128 88.012 L 119.996 84.01 Z "
              fill="rgb(13,186,255)"/>
        <path d=" M 119.996 99.986 L 111.992 95.984 L 111.992 103.988 L 119.996 107.99 L 128 111.992 L 128 103.988 L 119.996 99.986 Z "
              fill="rgb(13,186,255)"/>
        <path d=" M 119.996 115.994 L 111.992 111.992 L 111.992 119.996 L 119.996 123.998 L 128 128 L 128 119.996 L 119.996 115.994 Z "
              fill="rgb(13,186,255)"/>
    </g>
</svg>