<svg xmlns="http://www.w3.org/2000/svg" xmlns:xlink="http://www.w3.org/1999/xlink" style="isolation:isolate"
     viewBox="0 0 256 256" width="256px" height="256px">
    <g>
        <path d="M 7.54 0 L 52.46 0 C 56.621 0 60 3.378 60 7.54 L 60 7.62 C 60 11.782 56.621 15.16 52.46 15.16 L 7.54 15.16 C 3.379 15.16 0 11.782 0 7.62 L 0 7.54 C 0 3.378 3.379 0 7.54 0 Z"
              style="stroke:none;fill:currentColor;stroke-miterlimit:10;"/>
        <path d="M 7.54 22.84 L 52.46 22.84 C 56.621 22.84 60 26.218 60 30.38 L 60 30.46 C 60 34.622 56.621 38 52.46 38 L 7.54 38 C 3.379 38 0 34.622 0 30.46 L 0 30.38 C 0 26.218 3.379 22.84 7.54 22.84 Z"
              style="stroke:none;fill:currentColor;stroke-miterlimit:10;"/>
        <path d="M 7.54 45.84 L 52.46 45.84 C 56.621 45.84 60 49.218 60 53.38 L 60 53.46 C 60 57.622 56.621 61 52.46 61 L 7.54 61 C 3.379 61 0 57.622 0 53.46 L 0 53.38 C 0 49.218 3.379 45.84 7.54 45.84 Z"
              style="stroke:none;fill:currentColor;stroke-miterlimit:10;"/>
        <path d="M 7.54 68.84 L 52.46 68.84 C 56.621 68.84 60 72.218 60 76.38 L 60 76.46 C 60 80.622 56.621 84 52.46 84 L 7.54 84 C 3.379 84 0 80.622 0 76.46 L 0 76.38 C 0 72.218 3.379 68.84 7.54 68.84 Z"
              style="stroke:none;fill:currentColor;stroke-miterlimit:10;"/>
        <path d="M 7.54 91.84 L 52.46 91.84 C 56.621 91.84 60 95.218 60 99.38 L 60 99.46 C 60 103.622 56.621 107 52.46 107 L 7.54 107 C 3.379 107 0 103.622 0 99.46 L 0 99.38 C 0 95.218 3.379 91.84 7.54 91.84 Z"
              style="stroke:none;fill:currentColor;stroke-miterlimit:10;"/>
    </g>
    <path d="M 81.36 0 L 152.7 0 C 156.757 0 160.05 3.293 160.05 7.349 L 160.05 124.651 C 160.05 128.707 156.757 132 152.7 132 L 81.36 132 C 77.303 132 74.01 128.707 74.01 124.651 L 74.01 7.349 C 74.01 3.293 77.303 0 81.36 0 Z"
          style="stroke:none;fill:currentColor;stroke-miterlimit:10;"/>
    <path d="M 81.36 145 L 152.7 145 C 156.757 145 160.05 148.293 160.05 152.349 L 160.05 269.651 C 160.05 273.707 156.757 277 152.7 277 L 81.36 277 C 77.303 277 74.01 273.707 74.01 269.651 L 74.01 152.349 C 74.01 148.293 77.303 145 81.36 145 Z"
          style="stroke:none;fill:currentColor;stroke-miterlimit:10;"/>
    <path d="M 176.228 0 L 249.732 0 C 253.191 0 256 2.808 256 6.268 L 256 89.732 C 256 93.192 253.191 96 249.732 96 L 176.228 96 C 172.769 96 169.96 93.192 169.96 89.732 L 169.96 6.268 C 169.96 2.808 172.769 0 176.228 0 Z"
          style="stroke:none;fill:currentColor;stroke-miterlimit:10;"/>
    <path d="M 175.573 109 L 250.387 109 C 253.485 109 256 111.515 256 114.613 L 256 180.387 C 256 183.485 253.485 186 250.387 186 L 175.573 186 C 172.475 186 169.96 183.485 169.96 180.387 L 169.96 114.613 C 169.96 111.515 172.475 109 175.573 109 Z"
          style="stroke:none;fill:currentColor;stroke-miterlimit:10;"/>
    <path d="M 175.573 199 L 250.387 199 C 253.485 199 256 201.515 256 204.613 L 256 270.387 C 256 273.485 253.485 276 250.387 276 L 175.573 276 C 172.475 276 169.96 273.485 169.96 270.387 L 169.96 204.613 C 169.96 201.515 172.475 199 175.573 199 Z"
          style="stroke:none;fill:currentColor;stroke-miterlimit:10;"/>

</svg>