<svg xmlns="http://www.w3.org/2000/svg" xmlns:xlink="http://www.w3.org/1999/xlink" style="isolation:isolate"
     viewBox="0 0 256 256" width="256px" height="256px">
    <g>
        <path d="M 40 0 L 73 0 C 78.519 0 83 4.481 83 10 L 83 10 C 83 15.519 78.519 20 73 20 L 40 20 C 34.481 20 30 15.519 30 10 L 30 10 C 30 4.481 34.481 0 40 0 Z"
              style="stroke:none;fill:currentColor;stroke-miterlimit:10;"/>
        <path d="M 99 0 L 126 0 C 131.519 0 136 4.481 136 10 L 136 10 C 136 15.519 131.519 20 126 20 L 99 20 C 93.481 20 89 15.519 89 10 L 89 10 C 89 4.481 93.481 0 99 0 Z"
              style="stroke:none;fill:currentColor;stroke-miterlimit:10;"/>
        <path d="M 238 0 L 258 0 C 263.519 0 268 4.481 268 10 L 268 10 C 268 15.519 263.519 20 258 20 L 238 20 C 232.481 20 228 15.519 228 10 L 228 10 C 228 4.481 232.481 0 238 0 Z"
              style="stroke:none;fill:currentColor;stroke-miterlimit:10;"/>
        <path d="M -6 0 L 14 0 C 19.519 0 24 4.481 24 10 L 24 10 C 24 15.519 19.519 20 14 20 L -6 20 C -11.519 20 -16 15.519 -16 10 L -16 10 C -16 4.481 -11.519 0 -6 0 Z"
              style="stroke:none;fill:currentColor;stroke-miterlimit:10;"/>
        <path d="M 152 0 L 212 0 C 217.519 0 222 4.481 222 10 L 222 10 C 222 15.519 217.519 20 212 20 L 152 20 C 146.481 20 142 15.519 142 10 L 142 10 C 142 4.481 146.481 0 152 0 Z"
              style="stroke:none;fill:currentColor;stroke-miterlimit:10;"/>
    </g>
    <g>
        <path d="M -16.27 32 L 60.83 32 C 65.521 32 69.33 35.809 69.33 40.5 L 69.33 108.5 C 69.33 113.191 65.521 117 60.83 117 L -16.27 117 C -20.961 117 -24.77 113.191 -24.77 108.5 L -24.77 40.5 C -24.77 35.809 -20.961 32 -16.27 32 Z"
              style="stroke:none;fill:currentColor;stroke-miterlimit:10;"/>
        <path d="M -16.77 128 L 61.33 128 C 65.745 128 69.33 131.585 69.33 136 L 69.33 242 C 69.33 246.415 65.745 250 61.33 250 L -16.77 250 C -21.185 250 -24.77 246.415 -24.77 242 L -24.77 136 C -24.77 131.585 -21.185 128 -16.77 128 Z"
              style="stroke:none;fill:currentColor;stroke-miterlimit:10;"/>
        <path d="M 88.95 32 L 167.05 32 C 171.465 32 175.05 35.585 175.05 40 L 175.05 167 C 175.05 171.415 171.465 175 167.05 175 L 88.95 175 C 84.535 175 80.95 171.415 80.95 167 L 80.95 40 C 80.95 35.585 84.535 32 88.95 32 Z"
              style="stroke:none;fill:currentColor;stroke-miterlimit:10;"/>
        <path d="M 88.95 186 L 167.05 186 C 171.465 186 175.05 189.585 175.05 194 L 175.05 321 C 175.05 325.415 171.465 329 167.05 329 L 88.95 329 C 84.535 329 80.95 325.415 80.95 321 L 80.95 194 C 80.95 189.585 84.535 186 88.95 186 Z"
              style="stroke:none;fill:currentColor;stroke-miterlimit:10;"/>
        <path d="M 194.67 32 L 272.77 32 C 277.185 32 280.77 35.585 280.77 40 L 280.77 136 C 280.77 140.415 277.185 144 272.77 144 L 194.67 144 C 190.255 144 186.67 140.415 186.67 136 L 186.67 40 C 186.67 35.585 190.255 32 194.67 32 Z"
              style="stroke:none;fill:currentColor;stroke-miterlimit:10;"/>
        <path d="M 194.668 155 L 272.771 155 C 277.186 155 280.77 158.584 280.77 162.999 L 280.77 259.001 C 280.77 263.416 277.186 267 272.771 267 L 194.669 267 C 190.254 267 186.67 263.416 186.67 259.001 L 186.67 162.999 C 186.67 158.584 190.254 155 194.668 155 Z"
              style="stroke:none;fill:currentColor;stroke-miterlimit:10;"/>
    </g>
</svg>